<svg version="1.1" id="Layer_1" xmlns="http://www.w3.org/2000/svg" xmlns:xlink="http://www.w3.org/1999/xlink" x="0px" y="0px"
	 width="100%" viewBox="0 0 3840 2160" enable-background="new 0 0 3840 2160" xml:space="preserve">
<path fill="#47704C" opacity="1.000000" stroke="none" 
	d="
M2806.000000,2162.000000 
	C1870.666870,2162.000000 936.333679,2162.000000 2.000376,2162.000000 
	C2.000251,1442.000244 2.000251,722.000610 2.000125,2.000666 
	C1281.999512,2.000444 2561.999023,2.000444 3841.999023,2.000222 
	C3841.999268,721.999329 3841.999268,1441.998657 3841.999512,2161.999023 
	C3497.000000,2162.000000 3152.000000,2162.000000 2806.000000,2162.000000 
M1914.814575,1405.547363 
	C1915.250977,1405.212524 1915.648438,1404.836548 1917.871704,1404.221558 
	C1957.216064,1404.183716 1996.567505,1403.717773 2035.900146,1404.376587 
	C2047.266113,1404.566895 2056.003906,1402.371948 2062.192383,1392.475342 
	C2063.567871,1390.275879 2065.896973,1388.667114 2067.810303,1386.810425 
	C2076.874023,1378.015747 2086.082520,1369.365356 2094.984375,1360.410156 
	C2110.683350,1344.617188 2126.076416,1328.519409 2141.822266,1312.773804 
	C2157.332275,1297.264160 2173.246094,1282.158081 2188.754150,1266.646118 
	C2205.204590,1250.191162 2221.270508,1233.350830 2237.779297,1216.956055 
	C2241.196533,1213.562134 2242.467773,1210.164795 2242.405029,1205.542725 
	C2242.215576,1191.546021 2242.302246,1177.544800 2242.374023,1163.545776 
	C2242.388916,1160.666504 2242.805664,1157.789185 2243.089111,1154.266357 
	C2252.963623,1154.558594 2262.103760,1153.282715 2271.659668,1155.104492 
	C2271.659668,1170.111328 2271.659668,1184.092651 2271.659668,1198.073853 
	C2271.659668,1212.073242 2271.659668,1226.072632 2271.659668,1240.072021 
	C2271.659668,1254.071411 2271.590576,1268.071289 2271.679199,1282.070068 
	C2271.767090,1295.915283 2271.271973,1309.789551 2272.026367,1323.396240 
	C2290.563232,1325.668091 2563.618896,1324.743896 2571.674561,1322.228394 
	C2571.674561,1318.960571 2571.674561,1315.362183 2571.674561,1311.763672 
	C2571.674805,1284.098267 2571.675293,1256.432739 2571.675293,1228.767334 
	C2571.675293,1176.769653 2571.607666,1124.771729 2571.762939,1072.774536 
	C2571.781494,1066.504761 2570.943604,1061.463135 2565.745117,1056.931396 
	C2558.000000,1050.179443 2551.133545,1042.417969 2543.910400,1035.068848 
	C2534.355957,1025.347412 2524.905762,1015.521240 2515.247314,1005.904175 
	C2506.534912,997.229309 2497.463623,988.913696 2488.797363,980.194336 
	C2473.099609,964.400208 2457.654785,948.354614 2441.976074,932.541321 
	C2423.960205,914.370728 2405.676025,896.464172 2387.800049,878.158386 
	C2383.275635,873.525391 2378.668945,871.480103 2372.106201,871.526672 
	C2333.109863,871.803711 2294.110840,871.663025 2255.112549,871.662598 
	C2251.229980,871.662537 2247.347412,871.662537 2242.886963,871.662537 
	C2242.659424,867.021423 2242.374756,863.768188 2242.362305,860.513916 
	C2242.309570,846.848022 2242.132324,833.177185 2242.439209,819.518005 
	C2242.560791,814.092712 2240.869629,810.167969 2237.023926,806.335022 
	C2176.589111,746.096680 2116.252686,685.759216 2055.999512,625.338684 
	C2052.425293,621.754395 2048.788574,620.149597 2043.702759,620.232117 
	C2027.374390,620.497070 2011.039062,620.328125 1994.706421,620.328003 
	C1862.378906,620.327026 1730.051514,620.332031 1597.723999,620.300354 
	C1593.534912,620.299377 1589.345947,619.922363 1584.992432,619.712708 
	C1584.992432,546.797058 1584.992432,474.973267 1584.992432,402.579193 
	C1704.104614,402.579193 1822.565186,402.579193 1942.353271,402.579193 
	C1942.353271,459.179779 1942.353271,515.265442 1942.353271,571.709717 
	C2042.831787,571.709717 2141.982178,571.709717 2242.338623,571.709717 
	C2242.338623,567.539124 2242.338623,563.968262 2242.338623,560.397339 
	C2242.338867,480.734192 2242.238281,401.070740 2242.500732,321.408447 
	C2242.525879,313.760620 2240.169434,308.464325 2234.810303,303.135406 
	C2176.430908,245.084137 2118.198975,186.883469 2060.186523,128.465668 
	C2054.317383,122.555641 2048.507568,120.137543 2040.137817,120.148186 
	C1855.479736,120.382980 1670.821045,120.327576 1486.162598,120.328453 
	C1483.829346,120.328468 1481.414795,119.964874 1479.184937,120.448402 
	C1476.755493,120.975235 1473.939575,121.717476 1472.250732,123.354576 
	C1454.339966,140.715591 1436.564697,158.217606 1418.863647,175.793182 
	C1400.466675,194.059631 1382.192749,212.449875 1363.864380,230.785446 
	C1356.809814,237.842804 1349.718872,244.864212 1342.706055,251.962814 
	C1325.879517,268.995178 1309.435059,286.427246 1292.086548,302.908752 
	C1286.449219,308.264313 1284.180176,313.309540 1284.191528,320.900665 
	C1284.382202,448.228058 1284.327637,575.555847 1284.327515,702.883545 
	C1284.327515,703.883484 1284.411011,704.891724 1284.313354,705.882019 
	C1283.895996,710.115723 1285.315796,713.152405 1288.562500,716.280945 
	C1302.950439,730.145142 1316.942383,744.420410 1331.073730,758.550720 
	C1376.799561,804.273315 1422.614502,849.907532 1468.131836,895.836731 
	C1473.731812,901.487366 1479.294800,903.866821 1487.301392,903.842834 
	C1577.296631,903.573364 1667.292969,903.668335 1757.288940,903.687073 
	C1761.111084,903.687866 1764.933350,903.900024 1770.817017,904.075012 
	C1766.840210,908.314941 1764.484985,910.969055 1761.980957,913.474426 
	C1714.383301,961.096252 1666.829224,1008.762024 1619.060059,1056.211182 
	C1614.424316,1060.815918 1612.278564,1065.433228 1612.466675,1071.938354 
	C1612.841064,1084.883789 1612.591064,1097.848389 1612.520996,1110.804565 
	C1612.503540,1114.033081 1612.187988,1117.260010 1611.957275,1121.432739 
	C1602.429565,1121.475952 1593.695190,1122.340332 1584.340576,1120.811279 
	C1584.340576,1101.149048 1584.340454,1082.510742 1584.340454,1063.872314 
	C1584.340454,1044.873169 1584.401489,1025.873779 1584.323120,1006.874939 
	C1584.246704,988.370605 1584.672363,969.846558 1584.068237,951.651306 
	C1570.993774,949.434021 1292.513306,949.943970 1284.908325,952.057678 
	C1284.725464,954.190430 1284.360107,956.467957 1284.359253,958.745605 
	C1284.328857,1041.408569 1284.372437,1124.071777 1284.234009,1206.734497 
	C1284.225464,1211.848267 1285.826416,1215.484497 1289.423584,1219.002197 
	C1300.381836,1229.717896 1310.996460,1240.784180 1321.842163,1251.616333 
	C1370.410767,1300.124512 1419.105591,1348.507080 1467.469727,1397.218140 
	C1472.683472,1402.469360 1477.859253,1404.276001 1484.987671,1404.225952 
	C1523.307495,1403.957153 1561.630249,1404.090576 1599.951904,1404.134155 
	C1603.818115,1404.138550 1607.684204,1404.472290 1612.571777,1404.701050 
	C1612.571777,1410.111572 1612.570435,1414.377319 1612.571777,1418.642944 
	C1612.593140,1487.677368 1612.626221,1556.711670 1612.633179,1625.746094 
	C1612.640503,1698.769897 1612.645630,1771.793701 1612.569580,1844.817505 
	C1612.563965,1850.268311 1612.999023,1854.898438 1617.401855,1859.236572 
	C1642.320557,1883.789062 1666.848999,1908.736938 1691.602173,1933.458008 
	C1726.727051,1968.537354 1762.017212,2003.452148 1796.989624,2038.682495 
	C1801.142578,2042.866089 1805.198242,2044.436035 1810.929688,2044.432495 
	C1998.254761,2044.314941 2185.579834,2044.314209 2372.904785,2044.434448 
	C2378.665039,2044.438232 2382.838379,2042.774170 2386.926025,2038.672241 
	C2446.450195,1978.937134 2506.089111,1919.316162 2565.817139,1859.784790 
	C2569.864258,1855.750854 2571.800049,1851.679199 2571.787842,1845.826660 
	C2571.617676,1764.497314 2571.679932,1683.167480 2571.639648,1601.837769 
	C2571.638184,1598.965942 2571.161865,1596.094482 2570.893555,1593.069824 
	C2470.923828,1593.069824 2371.792480,1593.069824 2271.659912,1593.069824 
	C2271.659912,1597.735718 2271.659912,1601.677734 2271.659912,1605.619751 
	C2271.659668,1654.284302 2271.672363,1702.948730 2271.634033,1751.613281 
	C2271.630859,1755.440063 2271.271240,1759.266724 2271.088867,1762.863281 
	C2249.026123,1765.164551 1921.403076,1764.122803 1913.671631,1761.654175 
	C1913.671631,1758.238037 1913.671631,1754.597656 1913.671631,1750.957397 
	C1913.671631,1639.629028 1913.667236,1528.300537 1913.691162,1416.972168 
	C1913.691895,1413.316528 1913.978760,1409.660889 1914.814575,1405.547363 
z"/>
<path fill="#FEC62C" opacity="1.000000" stroke="none" 
	d="
M1914.132324,1406.005249 
	C1913.978760,1409.660889 1913.691895,1413.316528 1913.691162,1416.972168 
	C1913.667236,1528.300537 1913.671631,1639.629028 1913.671631,1750.957397 
	C1913.671631,1754.597656 1913.671631,1758.238037 1913.671631,1761.654175 
	C1921.403076,1764.122803 2249.026123,1765.164551 2271.088867,1762.863281 
	C2271.271240,1759.266724 2271.630859,1755.440063 2271.634033,1751.613281 
	C2271.672363,1702.948730 2271.659668,1654.284302 2271.659912,1605.619751 
	C2271.659912,1601.677734 2271.659912,1597.735718 2271.659912,1593.069824 
	C2371.792480,1593.069824 2470.923828,1593.069824 2570.893555,1593.069824 
	C2571.161865,1596.094482 2571.638184,1598.965942 2571.639648,1601.837769 
	C2571.679932,1683.167480 2571.617676,1764.497314 2571.787842,1845.826660 
	C2571.800049,1851.679199 2569.864258,1855.750854 2565.817139,1859.784790 
	C2506.089111,1919.316162 2446.450195,1978.937134 2386.926025,2038.672241 
	C2382.838379,2042.774170 2378.665039,2044.438232 2372.904785,2044.434448 
	C2185.579834,2044.314209 1998.254761,2044.314941 1810.929688,2044.432495 
	C1805.198242,2044.436035 1801.142578,2042.866089 1796.989624,2038.682495 
	C1762.017212,2003.452148 1726.727051,1968.537354 1691.602173,1933.458008 
	C1666.848999,1908.736938 1642.320557,1883.789062 1617.401855,1859.236572 
	C1612.999023,1854.898438 1612.563965,1850.268311 1612.569580,1844.817505 
	C1612.645630,1771.793701 1612.640503,1698.769897 1612.633179,1625.746094 
	C1612.626221,1556.711670 1612.593140,1487.677368 1612.571777,1418.642944 
	C1612.570435,1414.377319 1612.571777,1410.111572 1612.571777,1404.701050 
	C1607.684204,1404.472290 1603.818115,1404.138550 1599.951904,1404.134155 
	C1561.630249,1404.090576 1523.307495,1403.957153 1484.987671,1404.225952 
	C1477.859253,1404.276001 1472.683472,1402.469360 1467.469727,1397.218140 
	C1419.105591,1348.507080 1370.410767,1300.124512 1321.842163,1251.616333 
	C1310.996460,1240.784180 1300.381836,1229.717896 1289.423584,1219.002197 
	C1285.826416,1215.484497 1284.225464,1211.848267 1284.234009,1206.734497 
	C1284.372437,1124.071777 1284.328857,1041.408569 1284.359253,958.745605 
	C1284.360107,956.467957 1284.725464,954.190430 1284.908325,952.057678 
	C1292.513306,949.943970 1570.993774,949.434021 1584.068237,951.651306 
	C1584.672363,969.846558 1584.246704,988.370605 1584.323120,1006.874939 
	C1584.401489,1025.873779 1584.340454,1044.873169 1584.340454,1063.872314 
	C1584.340454,1082.510742 1584.340576,1101.149048 1584.340576,1120.811279 
	C1593.695190,1122.340332 1602.429565,1121.475952 1611.957275,1121.432739 
	C1612.187988,1117.260010 1612.503540,1114.033081 1612.520996,1110.804565 
	C1612.591064,1097.848389 1612.841064,1084.883789 1612.466675,1071.938354 
	C1612.278564,1065.433228 1614.424316,1060.815918 1619.060059,1056.211182 
	C1666.829224,1008.762024 1714.383301,961.096252 1761.980957,913.474426 
	C1764.484985,910.969055 1766.840210,908.314941 1770.817017,904.075012 
	C1764.933350,903.900024 1761.111084,903.687866 1757.288940,903.687073 
	C1667.292969,903.668335 1577.296631,903.573364 1487.301392,903.842834 
	C1479.294800,903.866821 1473.731812,901.487366 1468.131836,895.836731 
	C1422.614502,849.907532 1376.799561,804.273315 1331.073730,758.550720 
	C1316.942383,744.420410 1302.950439,730.145142 1288.562500,716.280945 
	C1285.315796,713.152405 1283.895996,710.115723 1284.313354,705.882019 
	C1284.411011,704.891724 1284.327515,703.883484 1284.327515,702.883545 
	C1284.327637,575.555847 1284.382202,448.228058 1284.191528,320.900665 
	C1284.180176,313.309540 1286.449219,308.264313 1292.086548,302.908752 
	C1309.435059,286.427246 1325.879517,268.995178 1342.706055,251.962814 
	C1349.718872,244.864212 1356.809814,237.842804 1363.864380,230.785446 
	C1382.192749,212.449875 1400.466675,194.059631 1418.863647,175.793182 
	C1436.564697,158.217606 1454.339966,140.715591 1472.250732,123.354576 
	C1473.939575,121.717476 1476.755493,120.975235 1479.184937,120.448402 
	C1481.414795,119.964874 1483.829346,120.328468 1486.162598,120.328453 
	C1670.821045,120.327576 1855.479736,120.382980 2040.137817,120.148186 
	C2048.507568,120.137543 2054.317383,122.555641 2060.186523,128.465668 
	C2118.198975,186.883469 2176.430908,245.084137 2234.810303,303.135406 
	C2240.169434,308.464325 2242.525879,313.760620 2242.500732,321.408447 
	C2242.238281,401.070740 2242.338867,480.734192 2242.338623,560.397339 
	C2242.338623,563.968262 2242.338623,567.539124 2242.338623,571.709717 
	C2141.982178,571.709717 2042.831787,571.709717 1942.353271,571.709717 
	C1942.353271,515.265442 1942.353271,459.179779 1942.353271,402.579193 
	C1822.565186,402.579193 1704.104614,402.579193 1584.992432,402.579193 
	C1584.992432,474.973267 1584.992432,546.797058 1584.992432,619.712708 
	C1589.345947,619.922363 1593.534912,620.299377 1597.723999,620.300354 
	C1730.051514,620.332031 1862.378906,620.327026 1994.706421,620.328003 
	C2011.039062,620.328125 2027.374390,620.497070 2043.702759,620.232117 
	C2048.788574,620.149597 2052.425293,621.754395 2055.999512,625.338684 
	C2116.252686,685.759216 2176.589111,746.096680 2237.023926,806.335022 
	C2240.869629,810.167969 2242.560791,814.092712 2242.439209,819.518005 
	C2242.132324,833.177185 2242.309570,846.848022 2242.362305,860.513916 
	C2242.374756,863.768188 2242.659424,867.021423 2242.886963,871.662537 
	C2247.347412,871.662537 2251.229980,871.662537 2255.112549,871.662598 
	C2294.110840,871.663025 2333.109863,871.803711 2372.106201,871.526672 
	C2378.668945,871.480103 2383.275635,873.525391 2387.800049,878.158386 
	C2405.676025,896.464172 2423.960205,914.370728 2441.976074,932.541321 
	C2457.654785,948.354614 2473.099609,964.400208 2488.797363,980.194336 
	C2497.463623,988.913696 2506.534912,997.229309 2515.247314,1005.904175 
	C2524.905762,1015.521240 2534.355957,1025.347412 2543.910400,1035.068848 
	C2551.133545,1042.417969 2558.000000,1050.179443 2565.745117,1056.931396 
	C2570.943604,1061.463135 2571.781494,1066.504761 2571.762939,1072.774536 
	C2571.607666,1124.771729 2571.675293,1176.769653 2571.675293,1228.767334 
	C2571.675293,1256.432739 2571.674805,1284.098267 2571.674561,1311.763672 
	C2571.674561,1315.362183 2571.674561,1318.960571 2571.674561,1322.228394 
	C2563.618896,1324.743896 2290.563232,1325.668091 2272.026367,1323.396240 
	C2271.271973,1309.789551 2271.767090,1295.915283 2271.679199,1282.070068 
	C2271.590576,1268.071289 2271.659668,1254.071411 2271.659668,1240.072021 
	C2271.659668,1226.072632 2271.659668,1212.073242 2271.659668,1198.073853 
	C2271.659668,1184.092651 2271.659668,1170.111328 2271.659668,1155.104492 
	C2262.103760,1153.282715 2252.963623,1154.558594 2243.089111,1154.266357 
	C2242.805664,1157.789185 2242.388916,1160.666504 2242.374023,1163.545776 
	C2242.302246,1177.544800 2242.215576,1191.546021 2242.405029,1205.542725 
	C2242.467773,1210.164795 2241.196533,1213.562134 2237.779297,1216.956055 
	C2221.270508,1233.350830 2205.204590,1250.191162 2188.754150,1266.646118 
	C2173.246094,1282.158081 2157.332275,1297.264160 2141.822266,1312.773804 
	C2126.076416,1328.519409 2110.683350,1344.617188 2094.984375,1360.410156 
	C2086.082520,1369.365356 2076.874023,1378.015747 2067.810303,1386.810425 
	C2065.896973,1388.667114 2063.567871,1390.275879 2062.192383,1392.475342 
	C2056.003906,1402.371948 2047.266113,1404.566895 2035.900146,1404.376587 
	C1996.567505,1403.717773 1957.216064,1404.183716 1916.432373,1404.271973 
	C1914.706177,1404.883301 1914.419189,1405.444336 1914.132324,1406.005249 
M1882.234619,1790.111938 
	C1882.207886,1570.793701 1882.178101,1351.475342 1882.185181,1132.157104 
	C1882.185303,1129.265625 1882.648560,1126.374268 1883.015381,1122.081299 
	C1903.008667,1122.081299 1922.449219,1122.081299 1941.606323,1122.081299 
	C1943.992188,1106.752441 1943.204468,910.450623 1940.619019,902.215332 
	C1937.399536,902.215332 1933.798218,902.215332 1930.197021,902.215332 
	C1895.866577,902.215271 1861.534424,902.393616 1827.207031,902.070679 
	C1819.995117,902.002808 1814.824463,904.006042 1809.668579,909.196594 
	C1756.817993,962.403503 1703.776855,1015.421997 1650.578247,1068.281128 
	C1645.637573,1073.190308 1643.936035,1078.165283 1643.940186,1084.973145 
	C1644.089722,1333.623291 1644.092651,1582.273560 1643.933105,1830.923706 
	C1643.928467,1838.117188 1645.831055,1843.295532 1651.026855,1848.454834 
	C1704.005615,1901.062256 1756.805786,1953.850708 1809.406982,2006.835571 
	C1814.791626,2012.259766 1820.196899,2014.404419 1827.750977,2014.383911 
	C1909.744995,2014.161499 1991.739746,2014.245605 2073.734375,2014.245605 
	C2168.394775,2014.245728 2263.055176,2014.226074 2357.715576,2014.291748 
	C2363.520264,2014.295654 2368.432617,2013.679810 2373.018555,2009.066528 
	C2426.829590,1954.933838 2480.824707,1900.984253 2534.902344,1847.117676 
	C2538.778320,1843.256714 2540.246338,1839.261597 2540.235840,1833.894775 
	C2540.106445,1766.899414 2540.160645,1699.903809 2540.120361,1632.908203 
	C2540.118408,1630.045288 2539.654297,1627.182495 2539.423828,1624.531006 
	C2523.618164,1622.430298 2310.299805,1623.209229 2302.075439,1625.562378 
	C2302.075439,1629.183960 2302.075439,1633.112915 2302.075439,1637.041870 
	C2302.075195,1674.039429 2302.109131,1711.036987 2302.057861,1748.034546 
	C2302.037598,1762.693604 2301.827881,1777.352539 2301.090332,1792.534912 
	C2300.695068,1792.901978 2300.335693,1793.301514 2298.156738,1794.028687 
	C2296.494141,1794.067261 2294.831543,1794.139404 2293.168945,1794.139526 
	C2159.771484,1794.146362 2026.373901,1794.150635 1892.976440,1794.131958 
	C1889.991089,1794.131470 1887.005615,1793.869873 1883.570557,1793.076782 
	C1883.239990,1792.659790 1882.861450,1792.292114 1882.234619,1790.111938 
M1394.907349,243.907120 
	C1371.100708,267.709167 1347.458252,291.679443 1323.370483,315.193604 
	C1317.432251,320.990448 1314.887695,326.846588 1314.906372,335.254211 
	C1315.167358,452.572235 1315.156494,569.891113 1314.927246,687.209290 
	C1314.911133,695.495422 1317.155273,701.474487 1323.120239,707.390076 
	C1375.405640,759.242432 1427.499268,811.290344 1479.309204,863.617371 
	C1485.519775,869.890015 1491.755493,872.097656 1500.331543,872.086121 
	C1653.312012,871.881104 1806.293091,871.937439 1959.273926,871.937561 
	C1963.482788,871.937561 1967.691650,871.937561 1971.561523,871.937561 
	C1974.088745,884.012207 1973.622192,1144.220215 1971.159180,1152.251099 
	C1951.991089,1153.450684 1932.429199,1151.671753 1912.956787,1153.246460 
	C1912.956787,1226.861816 1912.956787,1299.056396 1912.956787,1372.182373 
	C1917.399536,1372.449707 1921.279297,1372.879761 1925.159912,1372.885742 
	C1959.488892,1372.939087 1993.819946,1372.726074 2028.145386,1373.071167 
	C2035.439941,1373.144409 2040.543213,1370.864746 2045.639038,1365.738770 
	C2098.273438,1312.793091 2151.049316,1259.987061 2204.041016,1207.399048 
	C2209.513184,1201.968384 2211.487061,1196.452271 2211.450195,1188.949463 
	C2211.200684,1138.290405 2211.320801,1087.629395 2211.320557,1036.969116 
	C2211.320557,969.310913 2211.293213,901.652710 2211.366211,833.994568 
	C2211.372070,828.509766 2210.784912,823.855408 2206.407959,819.581299 
	C2186.864258,800.496094 2167.691162,781.031311 2148.351807,761.736023 
	C2114.154541,727.616455 2079.765869,693.685547 2045.892334,659.247742 
	C2040.410645,653.674744 2035.061646,651.719299 2027.595947,651.745605 
	C1967.604248,651.957153 1907.611328,651.870056 1847.618896,651.862366 
	C1753.963989,651.850403 1660.309082,651.834656 1566.654175,651.793945 
	C1562.480591,651.792175 1558.307129,651.529541 1553.855347,651.379028 
	C1553.855347,557.475708 1553.855347,464.946686 1553.855347,372.583282 
	C1563.035767,370.224701 1963.178589,370.225037 1973.160156,372.773254 
	C1973.160156,376.657990 1973.160156,380.905426 1973.160278,385.152832 
	C1973.160889,432.813538 1973.143311,480.474274 1973.193481,528.134888 
	C1973.197998,532.343140 1973.645142,536.550781 1973.871826,540.500183 
	C1985.300781,542.602173 2202.440430,542.268982 2210.571533,540.196655 
	C2210.802490,538.112549 2211.272949,535.840393 2211.274170,533.568054 
	C2211.314941,465.909882 2211.279297,398.251648 2211.375000,330.593597 
	C2211.381592,325.913239 2209.896240,322.495026 2206.561035,319.166382 
	C2152.310303,265.022430 2098.127197,210.810638 2044.090576,156.453186 
	C2039.680786,152.017365 2035.073730,150.576462 2029.019287,150.580490 
	C1851.708252,150.698227 1674.397095,150.710922 1497.086060,150.542084 
	C1490.468750,150.535782 1485.887451,152.715561 1481.372925,157.276169 
	C1453.002563,185.936798 1424.419067,214.386383 1394.907349,243.907120 
M2448.999756,1293.321167 
	C2458.993896,1293.321167 2468.987793,1293.321167 2478.981934,1293.321167 
	C2489.308838,1293.321167 2499.636963,1293.428101 2509.961914,1293.290283 
	C2519.789551,1293.159058 2529.692139,1293.975708 2539.536865,1292.620361 
	C2539.806152,1289.456177 2540.119873,1287.485352 2540.120850,1285.514282 
	C2540.149902,1217.557373 2540.093506,1149.600342 2540.264404,1081.643799 
	C2540.277344,1076.426270 2538.260498,1072.991089 2534.787354,1069.526733 
	C2480.775391,1015.656006 2426.817627,961.730957 2372.958008,907.708130 
	C2369.165527,903.904297 2365.303711,902.082642 2359.830322,902.112610 
	C2323.521484,902.311523 2287.211426,902.197083 2250.901611,902.249390 
	C2248.055420,902.253479 2245.209961,902.750854 2242.598633,902.996948 
	C2240.554688,918.923706 2241.310791,1114.176025 2243.629639,1122.500488 
	C2262.444580,1122.500488 2281.610352,1122.500488 2302.066895,1122.500488 
	C2302.066895,1179.725464 2302.066895,1235.807739 2302.066895,1293.321045 
	C2351.254883,1293.321045 2399.127197,1293.321045 2448.999756,1293.321167 
M1315.080444,1096.999268 
	C1315.081299,1127.992310 1315.231812,1158.986694 1314.966187,1189.977417 
	C1314.907959,1196.762085 1316.683228,1201.810791 1321.631592,1206.729370 
	C1375.047119,1259.822754 1428.289307,1313.090942 1481.406250,1366.483154 
	C1486.010864,1371.111694 1490.708008,1373.068970 1497.204712,1373.024780 
	C1532.180542,1372.786377 1567.158936,1372.943237 1602.136353,1372.896606 
	C1605.678955,1372.891846 1609.221191,1372.436890 1613.216553,1372.159424 
	C1613.216553,1298.804199 1613.216553,1226.383423 1613.216553,1153.109253 
	C1593.162964,1151.806152 1573.612793,1153.507324 1553.212646,1152.039307 
	C1553.212646,1146.600464 1553.212524,1142.334229 1553.212524,1138.067993 
	C1553.212036,1090.413452 1553.234131,1042.758789 1553.171753,995.104309 
	C1553.166260,990.953125 1552.606445,986.802734 1552.308838,982.716797 
	C1472.960449,982.716797 1394.785889,982.716797 1316.738525,982.716797 
	C1316.123779,984.241272 1315.447388,985.139832 1315.443359,986.041260 
	C1315.284424,1022.360352 1315.186157,1058.679810 1315.080444,1096.999268 
z"/>
<path fill="#5E7B48" opacity="1.000000" stroke="none" 
	d="
M1914.473389,1405.776367 
	C1914.419189,1405.444336 1914.706177,1404.883301 1915.500000,1404.370850 
	C1915.648438,1404.836548 1915.250977,1405.212524 1914.473389,1405.776367 
z"/>
<path fill="#9D2235" opacity="1.000000" stroke="none" 
	d="
M1395.406738,243.406433 
	C1424.419067,214.386383 1453.002563,185.936798 1481.372925,157.276169 
	C1485.887451,152.715561 1490.468750,150.535782 1497.086060,150.542084 
	C1674.397095,150.710922 1851.708252,150.698227 2029.019287,150.580490 
	C2035.073730,150.576462 2039.680786,152.017365 2044.090576,156.453186 
	C2098.127197,210.810638 2152.310303,265.022430 2206.561035,319.166382 
	C2209.896240,322.495026 2211.381592,325.913239 2211.375000,330.593597 
	C2211.279297,398.251648 2211.314941,465.909882 2211.274170,533.568054 
	C2211.272949,535.840393 2210.802490,538.112549 2210.571533,540.196655 
	C2202.440430,542.268982 1985.300781,542.602173 1973.871826,540.500183 
	C1973.645142,536.550781 1973.197998,532.343140 1973.193481,528.134888 
	C1973.143311,480.474274 1973.160889,432.813538 1973.160278,385.152832 
	C1973.160156,380.905426 1973.160156,376.657990 1973.160156,372.773254 
	C1963.178589,370.225037 1563.035767,370.224701 1553.855347,372.583282 
	C1553.855347,464.946686 1553.855347,557.475708 1553.855347,651.379028 
	C1558.307129,651.529541 1562.480591,651.792175 1566.654175,651.793945 
	C1660.309082,651.834656 1753.963989,651.850403 1847.618896,651.862366 
	C1907.611328,651.870056 1967.604248,651.957153 2027.595947,651.745605 
	C2035.061646,651.719299 2040.410645,653.674744 2045.892334,659.247742 
	C2079.765869,693.685547 2114.154541,727.616455 2148.351807,761.736023 
	C2167.691162,781.031311 2186.864258,800.496094 2206.407959,819.581299 
	C2210.784912,823.855408 2211.372070,828.509766 2211.366211,833.994568 
	C2211.293213,901.652710 2211.320557,969.310913 2211.320557,1036.969116 
	C2211.320801,1087.629395 2211.200684,1138.290405 2211.450195,1188.949463 
	C2211.487061,1196.452271 2209.513184,1201.968384 2204.041016,1207.399048 
	C2151.049316,1259.987061 2098.273438,1312.793091 2045.639038,1365.738770 
	C2040.543213,1370.864746 2035.439941,1373.144409 2028.145386,1373.071167 
	C1993.819946,1372.726074 1959.488892,1372.939087 1925.159912,1372.885742 
	C1921.279297,1372.879761 1917.399536,1372.449707 1912.956787,1372.182373 
	C1912.956787,1299.056396 1912.956787,1226.861816 1912.956787,1153.246460 
	C1932.429199,1151.671753 1951.991089,1153.450684 1971.159180,1152.251099 
	C1973.622192,1144.220215 1974.088745,884.012207 1971.561523,871.937561 
	C1967.691650,871.937561 1963.482788,871.937561 1959.273926,871.937561 
	C1806.293091,871.937439 1653.312012,871.881104 1500.331543,872.086121 
	C1491.755493,872.097656 1485.519775,869.890015 1479.309204,863.617371 
	C1427.499268,811.290344 1375.405640,759.242432 1323.120239,707.390076 
	C1317.155273,701.474487 1314.911133,695.495422 1314.927246,687.209290 
	C1315.156494,569.891113 1315.167358,452.572235 1314.906372,335.254211 
	C1314.887695,326.846588 1317.432251,320.990448 1323.370483,315.193604 
	C1347.458252,291.679443 1371.100708,267.709167 1395.406738,243.406433 
z"/>
<path fill="#9D2235" opacity="1.000000" stroke="none" 
	d="
M1884.020264,1793.730225 
	C1887.005615,1793.869873 1889.991089,1794.131470 1892.976440,1794.131958 
	C2026.373901,1794.150635 2159.771484,1794.146362 2293.168945,1794.139526 
	C2294.831543,1794.139404 2296.494141,1794.067261 2299.577881,1793.864258 
	C2301.689941,1793.327515 2301.925049,1792.764771 2301.704346,1792.011475 
	C2301.827881,1777.352539 2302.037598,1762.693604 2302.057861,1748.034546 
	C2302.109131,1711.036987 2302.075195,1674.039429 2302.075439,1637.041870 
	C2302.075439,1633.112915 2302.075439,1629.183960 2302.075439,1625.562378 
	C2310.299805,1623.209229 2523.618164,1622.430298 2539.423828,1624.531006 
	C2539.654297,1627.182495 2540.118408,1630.045288 2540.120361,1632.908203 
	C2540.160645,1699.903809 2540.106445,1766.899414 2540.235840,1833.894775 
	C2540.246338,1839.261597 2538.778320,1843.256714 2534.902344,1847.117676 
	C2480.824707,1900.984253 2426.829590,1954.933838 2373.018555,2009.066528 
	C2368.432617,2013.679810 2363.520264,2014.295654 2357.715576,2014.291748 
	C2263.055176,2014.226074 2168.394775,2014.245728 2073.734375,2014.245605 
	C1991.739746,2014.245605 1909.744995,2014.161499 1827.750977,2014.383911 
	C1820.196899,2014.404419 1814.791626,2012.259766 1809.406982,2006.835571 
	C1756.805786,1953.850708 1704.005615,1901.062256 1651.026855,1848.454834 
	C1645.831055,1843.295532 1643.928467,1838.117188 1643.933105,1830.923706 
	C1644.092651,1582.273560 1644.089722,1333.623291 1643.940186,1084.973145 
	C1643.936035,1078.165283 1645.637573,1073.190308 1650.578247,1068.281128 
	C1703.776855,1015.421997 1756.817993,962.403503 1809.668579,909.196594 
	C1814.824463,904.006042 1819.995117,902.002808 1827.207031,902.070679 
	C1861.534424,902.393616 1895.866577,902.215271 1930.197021,902.215332 
	C1933.798218,902.215332 1937.399536,902.215332 1940.619019,902.215332 
	C1943.204468,910.450623 1943.992188,1106.752441 1941.606323,1122.081299 
	C1922.449219,1122.081299 1903.008667,1122.081299 1883.015381,1122.081299 
	C1882.648560,1126.374268 1882.185303,1129.265625 1882.185181,1132.157104 
	C1882.178101,1351.475342 1882.207886,1570.793701 1882.326416,1791.522461 
	C1882.746460,1793.612183 1883.280518,1793.877930 1884.020264,1793.730225 
z"/>
<path fill="#9D2235" opacity="1.000000" stroke="none" 
	d="
M2447.999512,1293.321045 
	C2399.127197,1293.321045 2351.254883,1293.321045 2302.066895,1293.321045 
	C2302.066895,1235.807739 2302.066895,1179.725464 2302.066895,1122.500488 
	C2281.610352,1122.500488 2262.444580,1122.500488 2243.629639,1122.500488 
	C2241.310791,1114.176025 2240.554688,918.923706 2242.598633,902.996948 
	C2245.209961,902.750854 2248.055420,902.253479 2250.901611,902.249390 
	C2287.211426,902.197083 2323.521484,902.311523 2359.830322,902.112610 
	C2365.303711,902.082642 2369.165527,903.904297 2372.958008,907.708130 
	C2426.817627,961.730957 2480.775391,1015.656006 2534.787354,1069.526733 
	C2538.260498,1072.991089 2540.277344,1076.426270 2540.264404,1081.643799 
	C2540.093506,1149.600342 2540.149902,1217.557373 2540.120850,1285.514282 
	C2540.119873,1287.485352 2539.806152,1289.456177 2539.536865,1292.620361 
	C2529.692139,1293.975708 2519.789551,1293.159058 2509.961914,1293.290283 
	C2499.636963,1293.428101 2489.308838,1293.321167 2478.981934,1293.321167 
	C2468.987793,1293.321167 2458.993896,1293.321167 2447.999512,1293.321045 
z"/>
<path fill="#9D2235" opacity="1.000000" stroke="none" 
	d="
M1315.080322,1095.999268 
	C1315.186157,1058.679810 1315.284424,1022.360352 1315.443359,986.041260 
	C1315.447388,985.139832 1316.123779,984.241272 1316.738525,982.716797 
	C1394.785889,982.716797 1472.960449,982.716797 1552.308838,982.716797 
	C1552.606445,986.802734 1553.166260,990.953125 1553.171753,995.104309 
	C1553.234131,1042.758789 1553.212036,1090.413452 1553.212524,1138.067993 
	C1553.212524,1142.334229 1553.212646,1146.600464 1553.212646,1152.039307 
	C1573.612793,1153.507324 1593.162964,1151.806152 1613.216553,1153.109253 
	C1613.216553,1226.383423 1613.216553,1298.804199 1613.216553,1372.159424 
	C1609.221191,1372.436890 1605.678955,1372.891846 1602.136353,1372.896606 
	C1567.158936,1372.943237 1532.180542,1372.786377 1497.204712,1373.024780 
	C1490.708008,1373.068970 1486.010864,1371.111694 1481.406250,1366.483154 
	C1428.289307,1313.090942 1375.047119,1259.822754 1321.631592,1206.729370 
	C1316.683228,1201.810791 1314.907959,1196.762085 1314.966187,1189.977417 
	C1315.231812,1158.986694 1315.081299,1127.992310 1315.080322,1095.999268 
z"/>
<path fill="#EDAA2E" opacity="1.000000" stroke="none" 
	d="
M1883.795410,1793.403564 
	C1883.280518,1793.877930 1882.746460,1793.612183 1882.426636,1792.453369 
	C1882.861450,1792.292114 1883.239990,1792.659790 1883.795410,1793.403564 
z"/>
<path fill="#F5B72C" opacity="1.000000" stroke="none" 
	d="
M2301.397461,1792.273193 
	C2301.925049,1792.764771 2301.689941,1793.327515 2300.505859,1793.716553 
	C2300.335693,1793.301514 2300.695068,1792.901978 2301.397461,1792.273193 
z"/>
</svg>